<svg width="338" height="311" xmlns="http://www.w3.org/2000/svg"><g fill="none" fill-rule="evenodd"><circle fill="#272727" cx="150" cy="161" r="150"/><g fill="#D1B997" fill-rule="nonzero"><path d="M103 73h16v16h-16zm0 35h16v16h-16zm72 0h16v16h-16zm36 0h16v16h-16zm-36 36h16v16h-16zm36 0h16v16h-16zm-36 35h16v16h-16zm36 0h16v16h-16zm-36 37h16v16h-16zm36 0h16v16h-16zM67 108h16v16H67zm36 36h16v16h-16zm-36 0h16v16H67zm36 35h16v16h-16zm-36 0h16v16H67z"/><path d="M262.979 252.297V72.085H154.852v-37.46L136.83 37.63V0H49.042v52.26l-18.02 3.004v197.033H13V268h268v-15.703h-18.021zM246.675 87.133v165.025H154.26V87.133h92.414zM64.488 15.843h56.768v24.82l-56.768 9.504V15.842zM47.325 68.228l92.414-15.421v199.351h-20.337v-36.082h-51.74v36.082H47.325V68.228zm55.448 183.929H82.97v-19.803h19.803v19.803z"/></g><path d="M284.478 166.613l.238.09.17.067 40.834 16.848a10.142 10.142 0 016.267 8.86l.006.15.005.21.002.15v20.48c0 30.648-18.637 58.212-47.17 69.785a10.192 10.192 0 01-7.66 0c-28.23-11.45-46.796-38.567-47.165-68.903l-.005-.881v-20.48a10.14 10.14 0 015.815-9.166l.136-.062.192-.084.138-.06 40.832-16.847a10.19 10.19 0 017.193-.219l.172.062zm-7.602 63.66l-10.43-10.32a1.892 1.892 0 010 2.676 1.785 1.785 0 01-2.524 0l8.734 8.642 4.22 4.176 22.202-21.97a1.785 1.785 0 01-2.524 0 1.891 1.891 0 010-2.675l-19.678 19.472z" fill="#272727" fill-rule="nonzero" stroke="#D1B997" stroke-linejoin="round" stroke-width="12"/></g></svg>