<svg width="300" height="311" xmlns="http://www.w3.org/2000/svg"><g fill="none" fill-rule="evenodd"><circle fill="#272727" cx="150" cy="161" r="150"/><g fill="#D1B997" fill-rule="nonzero"><path d="M30.052 126.458L149.416 22.639l53.415 46.476L214 56.195 149.416 0 13 118.638V268h59.682v-17.112h-42.63zM124 251h17v17h-17zm-34 0h17v17H90zM260.5 89h-51c-14.083 0-25.5 11.449-25.5 25.571V242.43c0 14.12 11.417 25.57 25.5 25.57h51c14.083 0 25.5-11.449 25.5-25.571V114.57C286 100.45 274.583 89 260.5 89zm8.5 153.429c0 4.707-3.805 8.523-8.5 8.523h-51c-4.695 0-8.5-3.816-8.5-8.523V114.57c0-4.707 3.805-8.523 8.5-8.523h51c4.695 0 8.5 3.816 8.5 8.523v127.86z"/><path d="M218 123h34v17h-34zm8 94h17v17h-17z"/></g><path d="M131.416 189.016c-6.127-6.144-14.588-9.948-23.916-9.948-9.33 0-17.79 3.804-23.917 9.948l-13.5-13.537c9.586-9.612 22.822-15.567 37.417-15.567 14.595 0 27.83 5.955 37.417 15.567l-13.5 13.537zm-39.224 8.633L107.5 213l15.308-15.35c-3.918-3.927-9.33-6.357-15.308-6.357-5.979 0-11.39 2.43-15.308 6.356zm15.308-48.495c17.553 0 33.47 7.16 45 18.722l13.5-13.537C151.012 139.309 130.32 130 107.5 130s-43.512 9.308-58.5 24.339l13.5 13.537c11.529-11.563 27.447-18.722 45-18.722z" fill="#D1B997" fill-rule="nonzero"/></g></svg>