<svg width="300" height="311" xmlns="http://www.w3.org/2000/svg"><g fill="none" fill-rule="evenodd"><circle fill="#272727" cx="150" cy="161" r="150"/><g fill="#D1B997" fill-rule="nonzero"><path d="M277.677 144.444L232.38 99.13V34.297c0-4.386-3.559-7.94-7.95-7.94h-37.097c-4.39 0-7.95 3.554-7.95 7.94v11.81l-25.266-25.278a7.95 7.95 0 00-5.38-2.318c-.081-.002-.162-.012-.242-.012h-.005c-2.107 0-4.13.837-5.62 2.326L100.212 63.43C98.003 31.892 63.75 3.087 62.245 1.836a7.955 7.955 0 00-10.166 0C50.524 3.128 14 33.844 14 66.592c0 26.517 23.024 42.61 34.168 48.848L19.13 144.453a7.931 7.931 0 00.002 11.226 7.927 7.927 0 005.62 2.326c2.035 0 4.07-.777 5.623-2.328l18.82-18.802V255.12H32.472c-4.389 0-7.95 3.554-7.95 7.94 0 4.385 3.561 7.939 7.95 7.939h229.1c4.388 0 7.949-3.554 7.949-7.94 0-4.385-3.561-7.939-7.95-7.939h-13.785V137.016l18.638 18.647a7.958 7.958 0 0011.243.01 7.934 7.934 0 00.01-11.229zM195.28 42.236h21.2v40.988l-21.2-21.211V42.236zm36.607 174.95h-55.503c-2.725-12.886-14.193-22.587-27.894-22.587-13.698 0-25.169 9.701-27.893 22.586H65.094V120.99l16.778-16.762a70.848 70.848 0 004.973-4.968l61.641-61.587 83.401 83.447v96.065zM29.899 66.591c0-12.806 8.529-26.192 15.683-35.165 4.19-5.256 8.428-9.662 11.581-12.722 3.153 3.062 7.388 7.466 11.578 12.722 7.157 8.973 15.684 22.359 15.684 35.165 0 8.752-4.099 16.088-9.283 21.875l-4.125 4.12a66.447 66.447 0 01-5.923 4.727V57.908c0-4.385-3.559-7.94-7.95-7.94-4.388 0-7.95 3.555-7.95 7.94v39.43C40.512 91.193 29.9 80.783 29.9 66.593zm35.195 168.06h54.886v20.47H65.094v-20.47zm70.785 20.47v-32.05c0-6.945 5.658-12.596 12.611-12.596 6.954 0 12.612 5.65 12.612 12.596v32.05h-25.223zm41.12 0V234.65h54.888v20.471h-54.888z"/><path d="M122 162H96v-26h26zm76 0h-26v-26h26z"/></g></g></svg>